<svg width="75" height="75" viewBox="0 0 75 75" fill="none" xmlns="http://www.w3.org/2000/svg">
<path d="M43.2692 5.76923C43.2692 2.57812 40.6911 0 37.5 0C34.3089 0 31.7308 2.57812 31.7308 5.76923V31.7308H5.76923C2.57812 31.7308 0 34.3089 0 37.5C0 40.6911 2.57812 43.2692 5.76923 43.2692H31.7308V69.2308C31.7308 72.4219 34.3089 75 37.5 75C40.6911 75 43.2692 72.4219 43.2692 69.2308V43.2692H69.2308C72.4219 43.2692 75 40.6911 75 37.5C75 34.3089 72.4219 31.7308 69.2308 31.7308H43.2692V5.76923Z" fill="url(#paint0_linear_4_162)"/>
<defs>
<linearGradient id="paint0_linear_4_162" x1="37.5" y1="0" x2="37.5" y2="75" gradientUnits="userSpaceOnUse">
<stop stop-color="#D1142A"/>
<stop offset="1" stop-color="#A00517"/>
</linearGradient>
</defs>
</svg>
