<svg width="20" height="23" viewBox="0 0 20 23" fill="none" xmlns="http://www.w3.org/2000/svg">
<path d="M6.03571 0.795117C6.27679 0.305469 6.77232 0 7.3125 0H12.6875C13.2277 0 13.7232 0.305469 13.9643 0.795117L14.2857 1.4375H18.5714C19.3616 1.4375 20 2.07988 20 2.875C20 3.67012 19.3616 4.3125 18.5714 4.3125H1.42857C0.638393 4.3125 0 3.67012 0 2.875C0 2.07988 0.638393 1.4375 1.42857 1.4375H5.71429L6.03571 0.795117ZM1.42857 5.75H18.5714V20.125C18.5714 21.7107 17.2902 23 15.7143 23H4.28571C2.70982 23 1.42857 21.7107 1.42857 20.125V5.75ZM5.71429 8.625C5.32143 8.625 5 8.94844 5 9.34375V19.4062C5 19.8016 5.32143 20.125 5.71429 20.125C6.10714 20.125 6.42857 19.8016 6.42857 19.4062V9.34375C6.42857 8.94844 6.10714 8.625 5.71429 8.625ZM10 8.625C9.60714 8.625 9.28571 8.94844 9.28571 9.34375V19.4062C9.28571 19.8016 9.60714 20.125 10 20.125C10.3929 20.125 10.7143 19.8016 10.7143 19.4062V9.34375C10.7143 8.94844 10.3929 8.625 10 8.625ZM14.2857 8.625C13.8929 8.625 13.5714 8.94844 13.5714 9.34375V19.4062C13.5714 19.8016 13.8929 20.125 14.2857 20.125C14.6786 20.125 15 19.8016 15 19.4062V9.34375C15 8.94844 14.6786 8.625 14.2857 8.625Z" fill="url(#paint0_linear_4_159)"/>
<defs>
<linearGradient id="paint0_linear_4_159" x1="10" y1="0" x2="10" y2="23" gradientUnits="userSpaceOnUse">
<stop stop-color="#D1142A"/>
<stop offset="1" stop-color="#A00517"/>
</linearGradient>
</defs>
</svg>
