<svg width="75" height="86" viewBox="0 0 75 86" fill="none" xmlns="http://www.w3.org/2000/svg">
<path d="M37.5 43C43.1832 43 48.6337 40.7348 52.6523 36.7028C56.6709 32.6708 58.9286 27.2022 58.9286 21.5C58.9286 15.7978 56.6709 10.3292 52.6523 6.2972C48.6337 2.26517 43.1832 0 37.5 0C31.8168 0 26.3663 2.26517 22.3477 6.2972C18.3291 10.3292 16.0714 15.7978 16.0714 21.5C16.0714 27.2022 18.3291 32.6708 22.3477 36.7028C26.3663 40.7348 31.8168 43 37.5 43ZM29.8493 51.0625C13.3594 51.0625 0 64.4664 0 81.0113C0 83.766 2.22656 86 4.9721 86H70.0279C72.7734 86 75 83.766 75 81.0113C75 64.4664 61.6406 51.0625 45.1507 51.0625H29.8493Z" fill="url(#paint0_linear_13_165)"/>
<defs>
<linearGradient id="paint0_linear_13_165" x1="37.5" y1="0" x2="37.5" y2="86" gradientUnits="userSpaceOnUse">
<stop stop-color="#D1142A"/>
<stop offset="1" stop-color="#A00517"/>
</linearGradient>
</defs>
</svg>
